<?xml version="1.0" standalone="no"?>
<!DOCTYPE svg PUBLIC "-//W3C//DTD SVG 20010904//EN"
 "http://www.w3.org/TR/2001/REC-SVG-20010904/DTD/svg10.dtd">
<svg version="1.0" xmlns="http://www.w3.org/2000/svg"
 width="550.000000pt" height="428.000000pt" viewBox="0 0 550.000000 428.000000"
 preserveAspectRatio="xMidYMid meet">

<g transform="translate(0.000000,428.000000) scale(0.100000,-0.100000)"
fill="#000000" stroke="none">
<path d="M1350 2215 l0 -345 59 0 60 0 3 166 3 166 33 29 c32 28 73 37 99 21
25 -16 33 -69 33 -223 l0 -159 60 0 60 0 0 158 c-1 121 -5 168 -18 207 -21 62
-66 95 -127 95 -44 0 -109 -22 -120 -40 -19 -30 -25 2 -25 130 l0 140 -60 0
-60 0 0 -345z"/>
<path d="M2799 2556 c-2 -2 -3 -158 -1 -345 l3 -341 43 0 c36 0 45 4 54 25
l11 25 26 -25 c56 -51 153 -45 217 13 57 51 81 110 81 198 0 61 -4 79 -30 125
-53 94 -166 128 -245 74 -46 -31 -47 -29 -47 120 0 61 0 116 0 123 -1 8 -19
12 -54 12 -30 0 -56 -2 -58 -4z m266 -320 c33 -33 49 -99 41 -170 -10 -99 -55
-148 -119 -132 -57 14 -89 112 -72 222 13 91 95 135 150 80z"/>
<path d="M1960 2307 c-60 -31 -106 -99 -115 -172 -23 -178 92 -296 263 -270
39 6 55 15 96 57 46 48 48 52 31 65 -32 23 -69 16 -94 -18 -62 -84 -167 -43
-174 68 l-2 38 145 5 145 5 3 52 c2 34 -3 63 -14 85 -49 98 -181 137 -284 85z
m146 -54 c17 -17 44 -74 44 -93 0 -6 -36 -10 -95 -10 -52 0 -95 2 -95 4 0 17
27 76 43 94 25 27 78 30 103 5z"/>
<path d="M3435 2311 c-72 -34 -106 -80 -126 -170 -23 -110 45 -241 140 -270
104 -31 207 4 248 82 18 35 16 37 -36 44 -37 5 -41 3 -50 -20 -6 -14 -24 -33
-41 -42 -68 -35 -132 13 -141 105 l-4 35 150 5 150 5 3 32 c15 150 -151 260
-293 194z m150 -78 c14 -21 25 -48 25 -60 0 -22 -3 -23 -90 -23 -89 0 -90 0
-90 25 0 13 14 40 31 60 44 50 89 49 124 -2z"/>
<path d="M3924 2310 c-49 -22 -111 -97 -120 -146 -3 -19 -5 -63 -2 -97 6 -105
78 -188 174 -203 97 -14 176 19 214 91 12 23 12 28 0 35 -8 6 -28 10 -45 10
-23 0 -34 -7 -47 -30 -21 -37 -59 -53 -101 -42 -24 6 -38 19 -54 52 -13 24
-23 57 -23 72 l0 28 145 0 145 0 0 65 c0 81 -24 123 -91 160 -57 30 -134 33
-195 5z m150 -71 c15 -18 26 -43 26 -60 l0 -29 -90 0 c-49 0 -90 4 -90 9 0 5
5 22 11 38 29 77 97 97 143 42z"/>
<path d="M2315 2288 c4 -18 20 -71 35 -118 15 -47 37 -119 50 -160 42 -146 40
-140 65 -140 35 0 39 -15 19 -71 -28 -78 -60 -110 -117 -116 -43 -5 -47 -8
-48 -34 -1 -16 -2 -35 -3 -41 -1 -18 26 -21 76 -8 30 8 58 27 93 63 50 52 51
53 148 347 53 162 97 298 97 303 0 4 -18 7 -39 7 -36 0 -40 -3 -50 -32 -73
-239 -104 -327 -111 -323 -5 3 -12 20 -15 38 -10 45 -71 257 -84 290 -10 25
-15 27 -67 27 l-56 0 7 -32z"/>
</g>
</svg>
