<?xml version="1.0" standalone="no"?>
<!DOCTYPE svg PUBLIC "-//W3C//DTD SVG 20010904//EN"
 "http://www.w3.org/TR/2001/REC-SVG-20010904/DTD/svg10.dtd">
<svg version="1.0" xmlns="http://www.w3.org/2000/svg"
 width="400.000000pt" height="400.000000pt" viewBox="0 0 400.000000 400.000000"
 preserveAspectRatio="xMidYMid meet">

<g transform="translate(0.000000,400.000000) scale(0.100000,-0.100000)"
fill="#000000" stroke="none">
<path d="M1420 3060 c-24 -24 -26 -63 -5 -83 8 -9 34 -18 57 -22 75 -12 136
-45 183 -97 25 -28 45 -56 45 -63 0 -8 -11 -27 -25 -43 -49 -59 -77 -137 -77
-215 0 -40 5 -84 10 -99 l11 -26 -106 -36 c-249 -87 -425 -213 -498 -357 -81
-159 -71 -305 28 -404 112 -111 315 -124 471 -30 l56 34 0 -58 c0 -187 75
-337 234 -466 50 -42 104 -94 120 -116 51 -73 100 -72 155 2 17 24 70 75 118
114 156 126 233 280 233 466 l0 58 56 -34 c156 -94 359 -81 471 30 79 79 100
174 68 298 -25 96 -62 157 -149 242 -67 67 -100 90 -191 136 -60 31 -154 70
-207 88 l-97 32 10 27 c6 15 11 59 11 99 0 77 -25 149 -76 216 -14 19 -26 39
-26 44 0 6 20 33 45 61 47 52 108 85 183 97 23 4 49 13 57 22 21 20 19 59 -5
83 -16 16 -28 19 -67 13 -125 -16 -235 -85 -303 -191 l-15 -24 -55 19 c-36 12
-84 18 -140 18 -56 0 -104 -6 -140 -18 l-55 -19 -15 24 c-68 106 -178 175
-303 191 -39 6 -51 3 -67 -13z m521 -731 c24 -46 -24 -156 -129 -299 -70 -95
-259 -288 -326 -334 -97 -67 -235 -83 -324 -37 -151 77 -103 324 90 467 114
84 233 135 443 189 156 41 229 45 246 14z m361 -13 c212 -55 331 -106 446
-190 193 -143 241 -390 90 -467 -89 -46 -227 -30 -324 37 -67 46 -256 239
-326 334 -105 143 -153 253 -129 299 17 31 85 27 243 -13z m-263 -263 c19 -32
63 -92 97 -135 35 -42 60 -80 55 -82 -4 -3 -49 -11 -99 -17 -72 -10 -112 -10
-184 0 -50 6 -95 14 -99 17 -5 2 20 40 55 82 34 43 78 103 97 135 19 31 36 56
39 56 3 0 20 -25 39 -56z m-39 -345 c102 0 154 5 213 20 55 14 80 16 83 8 2
-6 8 -30 13 -53 l9 -43 -82 -27 c-74 -25 -94 -27 -236 -27 -142 0 -162 2 -236
27 l-82 27 9 43 c5 23 11 47 13 53 3 8 28 6 83 -8 59 -15 111 -20 213 -20z
m-233 -210 c66 -19 102 -23 233 -23 132 0 167 3 234 23 43 12 81 20 84 18 2
-3 -2 -31 -10 -63 l-14 -57 -58 -18 c-143 -44 -329 -44 -472 0 -61 18 -62 20
-78 105 -4 20 -5 37 -2 37 3 0 41 -10 83 -22z m233 -261 c69 0 142 5 163 11
20 6 37 7 37 2 0 -4 -45 -47 -100 -94 l-100 -86 -100 86 c-55 47 -100 90 -100
94 0 5 17 4 38 -2 20 -6 93 -11 162 -11z"/>
</g>
</svg>
