<?xml version="1.0" standalone="no"?>
<!DOCTYPE svg PUBLIC "-//W3C//DTD SVG 20010904//EN"
 "http://www.w3.org/TR/2001/REC-SVG-20010904/DTD/svg10.dtd">
<svg version="1.0" xmlns="http://www.w3.org/2000/svg"
 width="400.000000pt" height="276.000000pt" viewBox="0 0 400.000000 276.000000"
 preserveAspectRatio="xMidYMid meet">

<g transform="translate(0.000000,276.000000) scale(0.100000,-0.100000)"
fill="#000000" stroke="none">
<path d="M1775 2384 c-160 -20 -168 -27 -166 -151 1 -48 3 -100 5 -113 3 -14
7 -90 11 -170 5 -93 12 -155 21 -172 8 -15 38 -45 67 -66 101 -76 205 -185
233 -245 28 -62 53 -183 54 -257 0 -66 -25 -160 -66 -248 -31 -64 -53 -93
-135 -173 -79 -77 -99 -102 -99 -124 0 -25 52 -131 170 -350 35 -65 64 -101
94 -117 17 -9 316 -12 362 -4 10 2 138 7 284 11 145 4 274 11 287 16 12 4 28
18 36 31 23 37 133 703 121 736 -17 49 -34 52 -379 52 -357 0 -366 2 -432 71
-74 79 -70 173 9 232 60 45 83 47 444 47 324 0 345 1 363 19 13 13 17 29 15
52 -16 132 -143 401 -243 511 -132 146 -316 280 -477 348 -79 33 -259 68 -379
75 -44 2 -134 -3 -200 -11z"/>
<path d="M1134 1987 c-104 -109 -187 -248 -234 -393 -37 -116 -48 -204 -46
-378 l1 -139 114 -48 c63 -27 116 -47 119 -45 2 2 -6 47 -17 100 -26 118 -26
150 -2 251 38 157 106 262 209 322 41 24 43 28 38 62 -3 20 -13 101 -21 181
-9 80 -18 153 -21 163 -12 39 -50 18 -140 -76z"/>
<path d="M1477 1415 c-75 -26 -118 -86 -118 -163 -1 -92 43 -153 126 -177 82
-24 153 2 202 74 62 91 24 213 -82 262 -47 22 -76 23 -128 4z"/>
</g>
</svg>
