<?xml version="1.0" standalone="no"?>
<!DOCTYPE svg PUBLIC "-//W3C//DTD SVG 20010904//EN"
 "http://www.w3.org/TR/2001/REC-SVG-20010904/DTD/svg10.dtd">
<svg version="1.0" xmlns="http://www.w3.org/2000/svg"
 width="649.000000pt" height="652.000000pt" viewBox="0 0 649.000000 652.000000"
 preserveAspectRatio="xMidYMid meet">

<g transform="translate(0.000000,652.000000) scale(0.100000,-0.100000)"
fill="#000000" stroke="none">
<path d="M2518 4886 l-37 -75 57 -31 c31 -17 94 -50 139 -73 l83 -42 0 -182 0
-181 -105 -67 -105 -67 7 -114 6 -114 -300 0 -299 0 -36 -62 c-19 -35 -77
-135 -128 -223 -51 -88 -136 -234 -188 -325 -52 -91 -100 -172 -105 -182 -9
-13 37 -95 227 -411 l237 -396 52 -5 c68 -7 212 -16 260 -16 l37 0 0 -239 0
-239 238 -137 c130 -76 257 -150 282 -165 25 -15 86 -51 137 -80 l91 -53 68
-121 c37 -67 77 -138 88 -158 12 -21 23 -38 26 -38 3 0 41 71 86 158 l81 157
377 215 376 215 0 235 c-1 129 -1 241 -1 247 1 9 48 13 183 15 l181 3 233 399
232 399 -29 51 c-16 28 -118 210 -226 403 l-198 353 -297 0 -298 0 -1 88 c-2
170 9 148 -106 211 l-102 56 -1 185 0 185 140 73 c77 41 140 77 140 82 0 16
-82 140 -92 140 -5 0 -79 -41 -164 -90 -85 -50 -165 -96 -179 -102 l-25 -11
-2 -173 -3 -173 -150 79 c-82 44 -154 80 -159 80 -4 0 -75 -36 -157 -80 -82
-44 -152 -80 -155 -80 -2 0 -5 62 -4 138 1 75 1 153 0 173 l0 36 -178 102
c-98 55 -182 101 -188 101 -5 0 -26 -33 -46 -74z m992 -664 l245 -147 3 -62 3
-62 -82 -3 -82 -3 -163 -299 c-90 -165 -167 -303 -171 -307 -5 -4 -90 131
-191 299 l-183 307 -65 0 -64 -1 0 66 0 65 238 147 c130 80 244 146 252 146 8
0 125 -66 260 -146z m-1162 -768 l172 -316 -162 -282 c-89 -154 -169 -293
-177 -308 -14 -25 -22 -28 -66 -28 l-50 0 -49 88 c-27 48 -105 185 -173 305
-71 126 -122 225 -119 234 8 21 327 595 339 611 5 7 31 12 61 12 l51 -1 173
-315z m617 9 c93 -170 168 -313 168 -319 0 -6 -76 -149 -169 -317 l-169 -307
-208 0 c-115 0 -206 3 -204 8 3 4 82 143 176 310 l171 304 -17 31 c-9 18 -71
129 -138 247 -67 118 -139 245 -159 283 l-38 67 210 0 209 0 168 -307z m1155
300 c0 -4 -79 -145 -175 -313 l-176 -307 129 -224 c70 -123 149 -260 175 -305
26 -45 47 -84 47 -87 0 -4 -91 -7 -202 -7 l-203 1 -180 301 c-99 165 -182 307
-183 315 -3 12 322 569 361 621 7 9 61 12 208 12 110 0 199 -3 199 -7z m380
-113 c247 -426 290 -502 290 -505 0 -2 -71 -127 -157 -277 -86 -150 -166 -290
-177 -311 -21 -37 -22 -37 -75 -35 l-54 3 -36 65 c-21 36 -99 172 -174 303
-75 130 -137 243 -137 249 0 7 79 151 176 321 l176 308 51 -3 51 -3 66 -115z
m-1065 -1015 l170 -305 188 0 187 0 -2 -192 -3 -192 -25 -14 c-24 -13 -42 -4
-365 177 l-340 190 -40 -23 c-22 -13 -179 -99 -349 -191 -291 -159 -310 -167
-322 -150 -11 14 -14 64 -14 208 l0 188 184 -3 185 -3 89 150 c49 83 131 221
182 308 51 86 95 157 99 157 3 0 83 -137 176 -305z m-93 -588 c46 -30 146 -94
223 -142 77 -48 146 -94 153 -100 11 -10 -30 -39 -223 -155 l-236 -142 -250
143 c-138 78 -246 145 -242 149 15 14 477 300 485 300 4 0 45 -24 90 -53z"/>
</g>
</svg>
