<?xml version="1.0" encoding="UTF-8"?>
<svg version="1.1" xmlns="http://www.w3.org/2000/svg" width="550" height="600">
<path d="M0 0 C181.5 0 363 0 550 0 C550 198 550 396 550 600 C368.5 600 187 600 0 600 C0 402 0 204 0 0 Z " fill="#FEFEFE" transform="translate(0,0)"/>
<path d="M0 0 C2.9375 1.5 2.9375 1.5 5 3 C4.53863994 8.74438508 2.19420406 12.56279404 -0.8125 17.3125 C-1.54847412 18.49392578 -1.54847412 18.49392578 -2.29931641 19.69921875 C-7.0701053 27.27199554 -12.18436059 34.5830134 -17.43212891 41.83056641 C-19.0517523 44.07160868 -20.65773173 46.32196357 -22.26171875 48.57421875 C-28.93439002 57.91734065 -35.82134016 67.04076205 -43 76 C-43.70769531 76.89074219 -44.41539063 77.78148437 -45.14453125 78.69921875 C-47.08735741 81.14020546 -49.0410984 83.57190042 -51 86 C-51.71800781 86.89332031 -52.43601563 87.78664063 -53.17578125 88.70703125 C-57.70466658 94.29969621 -62.37272745 99.71172684 -67.25 105.00390625 C-70.14376752 108.30460983 -70.11265506 110.31166474 -70.0625 114.625 C-70.05347656 115.62789063 -70.04445313 116.63078125 -70.03515625 117.6640625 C-70.02355469 118.43492187 -70.01195313 119.20578125 -70 120 C-66.49990325 116.59565058 -63.0938108 113.16548955 -59.9375 109.4375 C-30.59572031 75.54609604 -30.59572031 75.54609604 -16.1875 73.625 C-11.94012544 74.12469112 -10.69540378 75.78048993 -8 79 C-5.82591513 82.26112731 -5.46367676 83.21720951 -6 87 C-7.6171875 89.18359375 -7.6171875 89.18359375 -9.875 91.4375 C-17.45896765 99.45278334 -28.2619593 111.0291604 -29.3125 122.375 C-29.15298218 124.97598984 -29.15298218 124.97598984 -28 127 C-20.53264825 126.83028746 -15.17407016 122.8808441 -9 119 C-8.28972656 118.63132812 -7.57945312 118.26265625 -6.84765625 117.8828125 C-1.34433594 114.77590519 -0.29306797 110.02210148 1.71484375 104.26953125 C3.65032755 99.34551927 6.44284455 95.86448321 10 92 C10.86625 91.04222656 11.7325 90.08445312 12.625 89.09765625 C23.16338861 77.81649739 36.849841 67.11878055 52.875 66.5625 C56.99354313 66.72700672 59.798368 67.21148181 63 70 C65.52012764 73.78019146 65.69587545 76.63227112 65 81 C60.35827435 95.01530755 48.15572289 102.84493612 35.59130859 109.22265625 C19.88499857 117 19.88499857 117 17 117 C17.30975468 118.77131561 17.62290425 120.54203778 17.9375 122.3125 C18.19853516 123.79169922 18.19853516 123.79169922 18.46484375 125.30078125 C18.95746847 128.08189213 18.95746847 128.08189213 20 131 C24.37512387 133.5977298 29.09459779 133.96621559 34 133 C44.78630959 128.85408443 59.41144465 121.85898911 65.44140625 111.53125 C66.02531158 109.9183097 66.56296454 108.28792115 67.0546875 106.64453125 C72.00657785 92.79151568 87.5959227 75.50370108 100 68 C102.80659615 66.77520364 103.83383198 66.68959137 107 67 C109.875 69.375 109.875 69.375 112 72 C112.33 72.33 112.66 72.66 113 73 C113.63663395 80.21475562 110.2149336 84.43879843 106 90 C102.76371686 93.67365446 99.33095647 97.09787751 95.8125 100.5 C94.92369141 101.37914062 94.03488281 102.25828125 93.11914062 103.1640625 C86.61051224 109.56022023 86.61051224 109.56022023 83.7956543 111.58789062 C81.15935231 113.66108855 80.76942687 115.79405472 80 119 C79.83142517 121.75065232 79.83142517 121.75065232 80 124 C101.74441303 120.77569282 124.23276936 94.22993157 136.6640625 77.80078125 C139.11407472 74.70371451 140.38283203 73.21782399 144.1875 71.875 C147 72 147 72 148.625 73.18359375 C151.07413455 76.41895615 150.83403391 79.51835377 150.70703125 83.46484375 C149.39137648 90.04311758 145.46594444 95.15677998 141.69091797 100.56982422 C138.41770848 105.27405859 135.24873889 110.04913495 132.0625 114.8125 C131.37712158 115.83230957 130.69174316 116.85211914 129.9855957 117.90283203 C122.66185311 128.86626858 115.78110781 140.13843899 110 152 C110.72703125 151.14728516 110.72703125 151.14728516 111.46875 150.27734375 C115.33004618 145.82942757 119.24760903 141.79812722 123.74609375 138.00390625 C126.56222725 135.50013418 129.1780906 132.81607691 131.8125 130.125 C145.25757798 116.476921 145.25757798 116.476921 153 113 C153.43918323 116.07428264 153.65860147 118.01842437 153 121 C150.69151393 124.05448539 147.83986123 126.44765581 145 129 C142.58222229 131.59330724 140.3028764 134.30448759 138 137 C137.07068532 138.07714468 136.14096456 139.15393909 135.2109375 140.23046875 C121.30696444 156.35095252 108.15719504 172.99614642 95.44287109 190.06542969 C92.96903841 193.38229097 90.48424995 196.69093763 88 200 C85.6875 200 85.6875 200 83 199 C80.11055096 193.42037428 79.01322947 188.25284951 80 182 C81.64794517 177.6274272 83.82378434 173.59572438 86.0625 169.5 C86.69288605 168.31823142 87.32242918 167.13601286 87.95117188 165.95336914 C94.01097353 154.64804632 100.60447565 143.65733117 107.32421875 132.73388672 C109.91441697 128.50821078 112.45847535 124.2550755 115 120 C114.26136719 120.68964844 113.52273438 121.37929688 112.76171875 122.08984375 C89.50575319 143.68439293 89.50575319 143.68439293 79.3125 147.3125 C75.77222094 146.97851141 75.23850731 146.78661942 72.875 144.375 C68.37374684 138.38542926 65 130.49826618 65 123 C62.32799311 125.65232359 59.68408662 128.3223089 57.08984375 131.05078125 C46.83077949 141.73541151 35.92594161 151.82489866 20.375 152.375 C14.18852597 152.17627248 10.30512182 150.81116714 5.375 146.9375 C-0.78339747 139.32053471 -2.83475683 132.75737983 -2 123 C-6.27750723 126.62480858 -10.36289652 130.33155964 -14.25 134.375 C-20.95641034 141.16291186 -29.9467624 150.1738919 -40.0625 150.375 C-44 150 -44 150 -46.4375 148.5625 C-49.36544885 143.76066389 -49.43281877 138.41107105 -48.5625 132.9375 C-45.26108359 120.30407988 -37.22311409 108.70090976 -30 98 C-42.49277279 103.52072419 -52.32780863 117.43165439 -60.5625 128.0625 C-62.3686854 130.3800153 -64.18073559 132.6927369 -66 135 C-66.44263184 135.56299805 -66.88526367 136.12599609 -67.34130859 136.70605469 C-68.61915 138.30606075 -69.92755323 139.87428375 -71.25 141.4375 C-71.99765625 142.34371094 -72.7453125 143.24992188 -73.515625 144.18359375 C-76 146 -76 146 -79.546875 146.34765625 C-83.32123118 144.87463263 -83.71050485 144.49506248 -85.41015625 141.05078125 C-87.25616347 136.06468915 -87.58108748 131.46293456 -87.4375 126.1875 C-87.42066162 125.30803711 -87.40382324 124.42857422 -87.38647461 123.52246094 C-87.07200445 113.32799554 -85.0886555 105.53485284 -80.0234375 96.6171875 C-79.43217323 95.57251816 -79.43217323 95.57251816 -78.82896423 94.50674438 C-74.44566474 86.87517831 -69.54633052 79.62255175 -64.5625 72.375 C-63.67587631 71.07329519 -62.78980812 69.77121184 -61.90429688 68.46875 C-54.1478107 57.08771257 -46.21838482 45.81935383 -37.9375 34.8125 C-37.18472778 33.81162354 -37.18472778 33.81162354 -36.41674805 32.79052734 C-10.32366916 -1.72061153 -10.32366916 -1.72061153 0 0 Z " fill="#040404" transform="translate(155,197)"/>
<path d="M0 0 C15.42059264 8.90967575 27.88433535 21.73640537 32.71484375 39.3046875 C33.03032656 41.80568887 32.98396518 43.77494604 32.71484375 46.3046875 C30.61434163 48.40518962 25.95007792 47.44181615 23.04296875 47.4453125 C21.24608112 47.46364513 19.44920578 47.48321586 17.65234375 47.50390625 C14.81033741 47.53285625 11.96911638 47.55468676 9.12695312 47.55517578 C6.38991083 47.55851364 3.65469389 47.59308979 0.91796875 47.6328125 C-0.35104279 47.62220795 -0.35104279 47.62220795 -1.64569092 47.61138916 C-6.02243624 47.70150936 -7.76894592 47.89957929 -11.32519531 50.69042969 C-13.42180658 53.11511835 -13.42180658 53.11511835 -13.84765625 55.8046875 C-13.10319086 59.11342259 -11.59328893 60.86078231 -9.28515625 63.3046875 C-6.0819678 64.90628173 -2.58771153 64.50441415 0.93359375 64.55078125 C2.60417213 64.58370857 4.27474491 64.6169204 5.9453125 64.65039062 C8.58541148 64.69789567 11.22548601 64.7423453 13.86572266 64.78149414 C16.40941704 64.82109856 18.9526509 64.87265907 21.49609375 64.92578125 C22.2888269 64.9341954 23.08156006 64.94260956 23.89831543 64.95127869 C29.48814542 65.07798917 29.48814542 65.07798917 31.71484375 67.3046875 C32.61283294 74.21920426 31.23877894 81.11558893 29.83984375 87.8671875 C29.66582031 88.74826172 29.49179687 89.62933594 29.3125 90.53710938 C28.79586615 93.12984594 28.25651623 95.71708326 27.71484375 98.3046875 C27.54694336 99.15788574 27.37904297 100.01108398 27.20605469 100.89013672 C27.04137695 101.69596191 26.87669922 102.50178711 26.70703125 103.33203125 C26.56378418 104.0499585 26.42053711 104.76788574 26.27294922 105.50756836 C25.71484375 107.3046875 25.71484375 107.3046875 23.71484375 109.3046875 C20.87548828 109.70336914 20.87548828 109.70336914 17.22265625 109.90234375 C16.23110031 109.95709618 16.23110031 109.95709618 15.21951294 110.01295471 C13.05168879 110.12522712 10.88384946 110.21832486 8.71484375 110.3046875 C7.98599976 110.33391296 7.25715576 110.36313843 6.50622559 110.39324951 C1.97231665 110.56224678 -2.5589423 110.66193602 -7.09570312 110.7097168 C-8.65679608 110.73161821 -10.21775666 110.76608248 -11.77832031 110.81225586 C-14.07540311 110.87907576 -16.37005403 110.90663327 -18.66796875 110.92578125 C-19.36068878 110.95361191 -20.05340881 110.98144257 -20.76712036 111.01011658 C-24.85933775 110.99270087 -26.14960323 110.43833958 -29.10546875 107.52392578 C-31.70499448 103.68461728 -33.98756424 99.83366423 -36.16015625 95.7421875 C-36.78277344 94.6294043 -36.78277344 94.6294043 -37.41796875 93.49414062 C-39.11697873 90.31416029 -40.28850123 88.11417149 -40.2734375 84.46875 C-39.08790398 81.87275961 -37.91009911 80.8939324 -35.59765625 79.2421875 C-29.64016929 74.28298214 -25.91717705 67.86990917 -24.84765625 60.14453125 C-24.7868674 57.13928245 -24.93756738 54.28886514 -25.28515625 51.3046875 C-25.37023437 50.5621875 -25.4553125 49.8196875 -25.54296875 49.0546875 C-27.16921974 40.19680975 -33.46280055 34.76802578 -40.4296875 29.75 C-43.37494708 27.4557978 -43.30111376 26.19231538 -43.84375 22.37109375 C-44.39464745 16.9904104 -44.39654065 11.64579397 -44.34765625 6.2421875 C-44.34088867 4.80069336 -44.34088867 4.80069336 -44.33398438 3.33007812 C-44.32233331 0.98821328 -44.3059765 -1.35351431 -44.28515625 -3.6953125 C-30.78614311 -9.32929127 -12.56171213 -6.48250067 0 0 Z " fill="#020202" transform="translate(436.28515625,246.6953125)"/>
<path d="M0 0 C0.87205078 0.34804688 0.87205078 0.34804688 1.76171875 0.703125 C2.16606457 4.03175757 2.47221492 7.3626962 2.76171875 10.703125 C2.93380859 12.12238281 2.93380859 12.12238281 3.109375 13.5703125 C3.33049009 16.47295064 3.3834374 18.85468353 2.76171875 21.703125 C0.95642614 23.7871445 -0.98875907 25.26598337 -3.19140625 26.91796875 C-7.71307729 30.8614872 -9.03067509 36.17273684 -9.5078125 41.98828125 C-9.57914701 47.63667756 -9.27158105 53.14913855 -8.23828125 58.703125 C-9.65619533 58.24866536 -11.07256171 57.78937556 -12.48828125 57.328125 C-13.67164063 56.94527344 -13.67164063 56.94527344 -14.87890625 56.5546875 C-17.10670844 55.7506132 -19.13237264 54.77939195 -21.23828125 53.703125 C-21.94427409 33.53616805 -20.43311236 18.40676569 -6.05078125 2.953125 C-2.83326602 -0.37579096 -2.83326602 -0.37579096 0 0 Z " fill="#050505" transform="translate(373.23828125,257.296875)"/>
<path d="M0 0 C0.54011719 0.226875 1.08023438 0.45375 1.63671875 0.6875 C1.23012397 8.81939569 -4.85385176 14.62526406 -10.44921875 20.0234375 C-16.19438019 25.0182105 -22.15171621 28.32735144 -29.36328125 30.6875 C-28.35842331 21.91431725 -22.82776605 14.2934494 -16.45703125 8.328125 C-4.98716165 -0.65945939 -4.98716165 -0.65945939 0 0 Z " fill="#F7F7F7" transform="translate(202.36328125,276.3125)"/>
<path d="M0 0 C2.97717008 1.98478006 4.62826444 3.36831119 5.44140625 6.9375 C5.65084713 10.50475112 5.14497413 12.70374852 3.5625 15.9375 C0.42023589 18.46663941 -1.82948266 19.02168422 -5.80859375 19.27734375 C-8 19 -8 19 -11 16.6875 C-13.86454809 12.83826351 -14.47268691 10.82140646 -14 6 C-10.24483925 0.36725887 -6.74599262 -1.10928368 0 0 Z " fill="#060606" transform="translate(392,292)"/>
</svg>
