<?xml version="1.0" standalone="no"?>
<!DOCTYPE svg PUBLIC "-//W3C//DTD SVG 20010904//EN"
 "http://www.w3.org/TR/2001/REC-SVG-20010904/DTD/svg10.dtd">
<svg version="1.0" xmlns="http://www.w3.org/2000/svg"
 width="999.000000pt" height="303.000000pt" viewBox="0 0 999.000000 303.000000"
 preserveAspectRatio="xMidYMid meet">

<g transform="translate(0.000000,303.000000) scale(0.100000,-0.100000)"
fill="#000000" stroke="none">
<path d="M1320 2202 c-6 -2 -10 -92 -10 -238 l0 -234 -365 0 -365 0 0 235 0
235 -140 0 -140 0 0 -610 0 -610 140 0 140 0 0 235 0 235 365 0 365 0 0 -235
0 -235 145 0 145 0 0 610 c0 336 -3 610 -7 610 -111 3 -266 4 -273 2z"/>
<path d="M2358 2202 l-608 -2 0 -375 0 -375 505 0 505 0 0 140 0 140 -367 2
-368 3 -3 92 -3 93 478 2 478 3 3 134 c1 74 -1 137 -5 140 -4 3 -281 5 -615 3z"/>
<path d="M3120 2203 c0 -5 261 -360 452 -616 65 -86 123 -169 128 -183 6 -14
10 -115 10 -225 l0 -199 140 0 140 0 0 209 0 209 50 74 c28 40 160 219 294
398 134 179 241 328 237 332 -3 3 -83 4 -176 1 l-170 -6 -174 -238 c-96 -131
-183 -241 -193 -245 -10 -3 -23 -2 -29 1 -9 6 -174 225 -314 418 l-49 67 -135
2 c-75 1 -153 3 -173 4 -21 0 -38 -1 -38 -3z"/>
<path d="M4747 2202 c-15 -3 -17 -21 -17 -143 l0 -139 471 0 c318 0 477 -4
491 -11 32 -17 51 -74 38 -115 -22 -65 -17 -64 -535 -64 l-465 0 0 -140 0
-140 471 0 c318 0 477 -4 491 -11 27 -14 51 -74 43 -109 -3 -15 -17 -38 -31
-51 l-26 -24 -471 -2 -472 -2 -3 -136 -3 -136 508 3 508 3 57 28 c108 53 184
155 209 279 15 73 0 163 -40 240 l-30 57 30 58 c16 32 34 86 40 121 28 158
-64 332 -211 401 l-55 26 -491 5 c-270 3 -498 4 -507 2z"/>
<path d="M6185 2197 c-12 -6 -14 -71 -15 -361 0 -194 2 -361 6 -370 6 -14 53
-16 510 -16 l504 0 0 140 0 140 -370 0 -370 0 0 95 0 95 475 0 475 0 0 143 0
142 -601 0 c-330 0 -607 -3 -614 -8z"/>
<path d="M7577 2202 c-16 -3 -17 -32 -15 -375 l3 -372 508 -3 507 -2 0 140 0
140 -370 0 -370 0 0 95 0 95 475 0 475 0 0 143 0 142 -598 0 c-329 0 -606 -1
-615 -3z"/>
<path d="M1750 1118 l0 -138 615 0 616 0 -3 135 -3 135 -613 3 -612 2 0 -137z"/>
<path d="M6203 1252 l-32 -3 2 -132 2 -132 613 -3 613 -2 -3 135 -3 136 -580
2 c-319 1 -594 1 -612 -1z"/>
<path d="M7570 1252 c-6 -2 -10 -57 -10 -138 l0 -134 615 0 616 0 -3 135 -3
136 -602 2 c-332 1 -607 1 -613 -1z"/>
</g>
</svg>
